<svg xmlns="http://www.w3.org/2000/svg" viewBox="0 0 638 118" shape-rendering="crispEdges">
<!-- first-plan banner logo, SNES Mario All-Stars palette, retro CRT background -->
<defs>
  <linearGradient id="bg" x1="0" y1="0" x2="0" y2="1">
    <stop offset="0%" stop-color="#1E1B4B"/>
    <stop offset="100%" stop-color="#4C1D95"/>
  </linearGradient>
  <radialGradient id="vignette" cx="0.5" cy="0.5" r="0.7">
    <stop offset="60%" stop-color="#000000" stop-opacity="0"/>
    <stop offset="100%" stop-color="#000000" stop-opacity="0.6"/>
  </radialGradient>
</defs>
<rect x="0" y="0" width="638" height="118" fill="url(#bg)"/>
<rect x="0" y="0" width="638" height="1" fill="#000000" opacity="0.15"/>
<rect x="0" y="4" width="638" height="1" fill="#000000" opacity="0.15"/>
<rect x="0" y="8" width="638" height="1" fill="#000000" opacity="0.15"/>
<rect x="0" y="12" width="638" height="1" fill="#000000" opacity="0.15"/>
<rect x="0" y="16" width="638" height="1" fill="#000000" opacity="0.15"/>
<rect x="0" y="20" width="638" height="1" fill="#000000" opacity="0.15"/>
<rect x="0" y="24" width="638" height="1" fill="#000000" opacity="0.15"/>
<rect x="0" y="28" width="638" height="1" fill="#000000" opacity="0.15"/>
<rect x="0" y="32" width="638" height="1" fill="#000000" opacity="0.15"/>
<rect x="0" y="36" width="638" height="1" fill="#000000" opacity="0.15"/>
<rect x="0" y="40" width="638" height="1" fill="#000000" opacity="0.15"/>
<rect x="0" y="44" width="638" height="1" fill="#000000" opacity="0.15"/>
<rect x="0" y="48" width="638" height="1" fill="#000000" opacity="0.15"/>
<rect x="0" y="52" width="638" height="1" fill="#000000" opacity="0.15"/>
<rect x="0" y="56" width="638" height="1" fill="#000000" opacity="0.15"/>
<rect x="0" y="60" width="638" height="1" fill="#000000" opacity="0.15"/>
<rect x="0" y="64" width="638" height="1" fill="#000000" opacity="0.15"/>
<rect x="0" y="68" width="638" height="1" fill="#000000" opacity="0.15"/>
<rect x="0" y="72" width="638" height="1" fill="#000000" opacity="0.15"/>
<rect x="0" y="76" width="638" height="1" fill="#000000" opacity="0.15"/>
<rect x="0" y="80" width="638" height="1" fill="#000000" opacity="0.15"/>
<rect x="0" y="84" width="638" height="1" fill="#000000" opacity="0.15"/>
<rect x="0" y="88" width="638" height="1" fill="#000000" opacity="0.15"/>
<rect x="0" y="92" width="638" height="1" fill="#000000" opacity="0.15"/>
<rect x="0" y="96" width="638" height="1" fill="#000000" opacity="0.15"/>
<rect x="0" y="100" width="638" height="1" fill="#000000" opacity="0.15"/>
<rect x="0" y="104" width="638" height="1" fill="#000000" opacity="0.15"/>
<rect x="0" y="108" width="638" height="1" fill="#000000" opacity="0.15"/>
<rect x="0" y="112" width="638" height="1" fill="#000000" opacity="0.15"/>
<rect x="0" y="116" width="638" height="1" fill="#000000" opacity="0.15"/>
<rect x="29" y="29" width="12" height="12" fill="#DC2626"/>
<rect x="39" y="29" width="12" height="12" fill="#DC2626"/>
<rect x="49" y="29" width="12" height="12" fill="#DC2626"/>
<rect x="59" y="29" width="12" height="12" fill="#DC2626"/>
<rect x="69" y="29" width="12" height="12" fill="#DC2626"/>
<rect x="29" y="39" width="12" height="12" fill="#DC2626"/>
<rect x="29" y="49" width="12" height="12" fill="#DC2626"/>
<rect x="29" y="59" width="12" height="12" fill="#DC2626"/>
<rect x="39" y="59" width="12" height="12" fill="#DC2626"/>
<rect x="49" y="59" width="12" height="12" fill="#DC2626"/>
<rect x="59" y="59" width="12" height="12" fill="#DC2626"/>
<rect x="29" y="69" width="12" height="12" fill="#DC2626"/>
<rect x="29" y="79" width="12" height="12" fill="#DC2626"/>
<rect x="29" y="89" width="12" height="12" fill="#DC2626"/>
<rect x="89" y="29" width="12" height="12" fill="#DC2626"/>
<rect x="99" y="29" width="12" height="12" fill="#DC2626"/>
<rect x="109" y="29" width="12" height="12" fill="#DC2626"/>
<rect x="119" y="29" width="12" height="12" fill="#DC2626"/>
<rect x="129" y="29" width="12" height="12" fill="#DC2626"/>
<rect x="109" y="39" width="12" height="12" fill="#DC2626"/>
<rect x="109" y="49" width="12" height="12" fill="#DC2626"/>
<rect x="109" y="59" width="12" height="12" fill="#DC2626"/>
<rect x="109" y="69" width="12" height="12" fill="#DC2626"/>
<rect x="109" y="79" width="12" height="12" fill="#DC2626"/>
<rect x="89" y="89" width="12" height="12" fill="#DC2626"/>
<rect x="99" y="89" width="12" height="12" fill="#DC2626"/>
<rect x="109" y="89" width="12" height="12" fill="#DC2626"/>
<rect x="119" y="89" width="12" height="12" fill="#DC2626"/>
<rect x="129" y="89" width="12" height="12" fill="#DC2626"/>
<rect x="149" y="29" width="12" height="12" fill="#DC2626"/>
<rect x="159" y="29" width="12" height="12" fill="#DC2626"/>
<rect x="169" y="29" width="12" height="12" fill="#DC2626"/>
<rect x="179" y="29" width="12" height="12" fill="#DC2626"/>
<rect x="149" y="39" width="12" height="12" fill="#DC2626"/>
<rect x="189" y="39" width="12" height="12" fill="#DC2626"/>
<rect x="149" y="49" width="12" height="12" fill="#DC2626"/>
<rect x="189" y="49" width="12" height="12" fill="#DC2626"/>
<rect x="149" y="59" width="12" height="12" fill="#DC2626"/>
<rect x="159" y="59" width="12" height="12" fill="#DC2626"/>
<rect x="169" y="59" width="12" height="12" fill="#DC2626"/>
<rect x="179" y="59" width="12" height="12" fill="#DC2626"/>
<rect x="149" y="69" width="12" height="12" fill="#DC2626"/>
<rect x="169" y="69" width="12" height="12" fill="#DC2626"/>
<rect x="149" y="79" width="12" height="12" fill="#DC2626"/>
<rect x="179" y="79" width="12" height="12" fill="#DC2626"/>
<rect x="149" y="89" width="12" height="12" fill="#DC2626"/>
<rect x="189" y="89" width="12" height="12" fill="#DC2626"/>
<rect x="219" y="29" width="12" height="12" fill="#DC2626"/>
<rect x="229" y="29" width="12" height="12" fill="#DC2626"/>
<rect x="239" y="29" width="12" height="12" fill="#DC2626"/>
<rect x="249" y="29" width="12" height="12" fill="#DC2626"/>
<rect x="209" y="39" width="12" height="12" fill="#DC2626"/>
<rect x="209" y="49" width="12" height="12" fill="#DC2626"/>
<rect x="219" y="59" width="12" height="12" fill="#DC2626"/>
<rect x="229" y="59" width="12" height="12" fill="#DC2626"/>
<rect x="239" y="59" width="12" height="12" fill="#DC2626"/>
<rect x="249" y="69" width="12" height="12" fill="#DC2626"/>
<rect x="249" y="79" width="12" height="12" fill="#DC2626"/>
<rect x="209" y="89" width="12" height="12" fill="#DC2626"/>
<rect x="219" y="89" width="12" height="12" fill="#DC2626"/>
<rect x="229" y="89" width="12" height="12" fill="#DC2626"/>
<rect x="239" y="89" width="12" height="12" fill="#DC2626"/>
<rect x="269" y="29" width="12" height="12" fill="#DC2626"/>
<rect x="279" y="29" width="12" height="12" fill="#DC2626"/>
<rect x="289" y="29" width="12" height="12" fill="#DC2626"/>
<rect x="299" y="29" width="12" height="12" fill="#DC2626"/>
<rect x="309" y="29" width="12" height="12" fill="#DC2626"/>
<rect x="289" y="39" width="12" height="12" fill="#DC2626"/>
<rect x="289" y="49" width="12" height="12" fill="#DC2626"/>
<rect x="289" y="59" width="12" height="12" fill="#DC2626"/>
<rect x="289" y="69" width="12" height="12" fill="#DC2626"/>
<rect x="289" y="79" width="12" height="12" fill="#DC2626"/>
<rect x="289" y="89" width="12" height="12" fill="#DC2626"/>
<rect x="339" y="59" width="12" height="12" fill="#DC2626"/>
<rect x="349" y="59" width="12" height="12" fill="#DC2626"/>
<rect x="359" y="59" width="12" height="12" fill="#DC2626"/>
<rect x="389" y="29" width="12" height="12" fill="#DC2626"/>
<rect x="399" y="29" width="12" height="12" fill="#DC2626"/>
<rect x="409" y="29" width="12" height="12" fill="#DC2626"/>
<rect x="419" y="29" width="12" height="12" fill="#DC2626"/>
<rect x="389" y="39" width="12" height="12" fill="#DC2626"/>
<rect x="429" y="39" width="12" height="12" fill="#DC2626"/>
<rect x="389" y="49" width="12" height="12" fill="#DC2626"/>
<rect x="429" y="49" width="12" height="12" fill="#DC2626"/>
<rect x="389" y="59" width="12" height="12" fill="#DC2626"/>
<rect x="399" y="59" width="12" height="12" fill="#DC2626"/>
<rect x="409" y="59" width="12" height="12" fill="#DC2626"/>
<rect x="419" y="59" width="12" height="12" fill="#DC2626"/>
<rect x="389" y="69" width="12" height="12" fill="#DC2626"/>
<rect x="389" y="79" width="12" height="12" fill="#DC2626"/>
<rect x="389" y="89" width="12" height="12" fill="#DC2626"/>
<rect x="449" y="29" width="12" height="12" fill="#DC2626"/>
<rect x="449" y="39" width="12" height="12" fill="#DC2626"/>
<rect x="449" y="49" width="12" height="12" fill="#DC2626"/>
<rect x="449" y="59" width="12" height="12" fill="#DC2626"/>
<rect x="449" y="69" width="12" height="12" fill="#DC2626"/>
<rect x="449" y="79" width="12" height="12" fill="#DC2626"/>
<rect x="449" y="89" width="12" height="12" fill="#DC2626"/>
<rect x="459" y="89" width="12" height="12" fill="#DC2626"/>
<rect x="469" y="89" width="12" height="12" fill="#DC2626"/>
<rect x="479" y="89" width="12" height="12" fill="#DC2626"/>
<rect x="489" y="89" width="12" height="12" fill="#DC2626"/>
<rect x="519" y="29" width="12" height="12" fill="#DC2626"/>
<rect x="529" y="29" width="12" height="12" fill="#DC2626"/>
<rect x="539" y="29" width="12" height="12" fill="#DC2626"/>
<rect x="509" y="39" width="12" height="12" fill="#DC2626"/>
<rect x="549" y="39" width="12" height="12" fill="#DC2626"/>
<rect x="509" y="49" width="12" height="12" fill="#DC2626"/>
<rect x="549" y="49" width="12" height="12" fill="#DC2626"/>
<rect x="509" y="59" width="12" height="12" fill="#DC2626"/>
<rect x="519" y="59" width="12" height="12" fill="#DC2626"/>
<rect x="529" y="59" width="12" height="12" fill="#DC2626"/>
<rect x="539" y="59" width="12" height="12" fill="#DC2626"/>
<rect x="549" y="59" width="12" height="12" fill="#DC2626"/>
<rect x="509" y="69" width="12" height="12" fill="#DC2626"/>
<rect x="549" y="69" width="12" height="12" fill="#DC2626"/>
<rect x="509" y="79" width="12" height="12" fill="#DC2626"/>
<rect x="549" y="79" width="12" height="12" fill="#DC2626"/>
<rect x="509" y="89" width="12" height="12" fill="#DC2626"/>
<rect x="549" y="89" width="12" height="12" fill="#DC2626"/>
<rect x="569" y="29" width="12" height="12" fill="#DC2626"/>
<rect x="609" y="29" width="12" height="12" fill="#DC2626"/>
<rect x="569" y="39" width="12" height="12" fill="#DC2626"/>
<rect x="579" y="39" width="12" height="12" fill="#DC2626"/>
<rect x="609" y="39" width="12" height="12" fill="#DC2626"/>
<rect x="569" y="49" width="12" height="12" fill="#DC2626"/>
<rect x="589" y="49" width="12" height="12" fill="#DC2626"/>
<rect x="609" y="49" width="12" height="12" fill="#DC2626"/>
<rect x="569" y="59" width="12" height="12" fill="#DC2626"/>
<rect x="589" y="59" width="12" height="12" fill="#DC2626"/>
<rect x="609" y="59" width="12" height="12" fill="#DC2626"/>
<rect x="569" y="69" width="12" height="12" fill="#DC2626"/>
<rect x="589" y="69" width="12" height="12" fill="#DC2626"/>
<rect x="609" y="69" width="12" height="12" fill="#DC2626"/>
<rect x="569" y="79" width="12" height="12" fill="#DC2626"/>
<rect x="599" y="79" width="12" height="12" fill="#DC2626"/>
<rect x="609" y="79" width="12" height="12" fill="#DC2626"/>
<rect x="569" y="89" width="12" height="12" fill="#DC2626"/>
<rect x="609" y="89" width="12" height="12" fill="#DC2626"/>
<rect x="23" y="23" width="12" height="12" fill="#000000"/>
<rect x="33" y="23" width="12" height="12" fill="#000000"/>
<rect x="43" y="23" width="12" height="12" fill="#000000"/>
<rect x="53" y="23" width="12" height="12" fill="#000000"/>
<rect x="63" y="23" width="12" height="12" fill="#000000"/>
<rect x="23" y="33" width="12" height="12" fill="#000000"/>
<rect x="23" y="43" width="12" height="12" fill="#000000"/>
<rect x="23" y="53" width="12" height="12" fill="#000000"/>
<rect x="33" y="53" width="12" height="12" fill="#000000"/>
<rect x="43" y="53" width="12" height="12" fill="#000000"/>
<rect x="53" y="53" width="12" height="12" fill="#000000"/>
<rect x="23" y="63" width="12" height="12" fill="#000000"/>
<rect x="23" y="73" width="12" height="12" fill="#000000"/>
<rect x="23" y="83" width="12" height="12" fill="#000000"/>
<rect x="83" y="23" width="12" height="12" fill="#000000"/>
<rect x="93" y="23" width="12" height="12" fill="#000000"/>
<rect x="103" y="23" width="12" height="12" fill="#000000"/>
<rect x="113" y="23" width="12" height="12" fill="#000000"/>
<rect x="123" y="23" width="12" height="12" fill="#000000"/>
<rect x="103" y="33" width="12" height="12" fill="#000000"/>
<rect x="103" y="43" width="12" height="12" fill="#000000"/>
<rect x="103" y="53" width="12" height="12" fill="#000000"/>
<rect x="103" y="63" width="12" height="12" fill="#000000"/>
<rect x="103" y="73" width="12" height="12" fill="#000000"/>
<rect x="83" y="83" width="12" height="12" fill="#000000"/>
<rect x="93" y="83" width="12" height="12" fill="#000000"/>
<rect x="103" y="83" width="12" height="12" fill="#000000"/>
<rect x="113" y="83" width="12" height="12" fill="#000000"/>
<rect x="123" y="83" width="12" height="12" fill="#000000"/>
<rect x="143" y="23" width="12" height="12" fill="#000000"/>
<rect x="153" y="23" width="12" height="12" fill="#000000"/>
<rect x="163" y="23" width="12" height="12" fill="#000000"/>
<rect x="173" y="23" width="12" height="12" fill="#000000"/>
<rect x="143" y="33" width="12" height="12" fill="#000000"/>
<rect x="183" y="33" width="12" height="12" fill="#000000"/>
<rect x="143" y="43" width="12" height="12" fill="#000000"/>
<rect x="183" y="43" width="12" height="12" fill="#000000"/>
<rect x="143" y="53" width="12" height="12" fill="#000000"/>
<rect x="153" y="53" width="12" height="12" fill="#000000"/>
<rect x="163" y="53" width="12" height="12" fill="#000000"/>
<rect x="173" y="53" width="12" height="12" fill="#000000"/>
<rect x="143" y="63" width="12" height="12" fill="#000000"/>
<rect x="163" y="63" width="12" height="12" fill="#000000"/>
<rect x="143" y="73" width="12" height="12" fill="#000000"/>
<rect x="173" y="73" width="12" height="12" fill="#000000"/>
<rect x="143" y="83" width="12" height="12" fill="#000000"/>
<rect x="183" y="83" width="12" height="12" fill="#000000"/>
<rect x="213" y="23" width="12" height="12" fill="#000000"/>
<rect x="223" y="23" width="12" height="12" fill="#000000"/>
<rect x="233" y="23" width="12" height="12" fill="#000000"/>
<rect x="243" y="23" width="12" height="12" fill="#000000"/>
<rect x="203" y="33" width="12" height="12" fill="#000000"/>
<rect x="203" y="43" width="12" height="12" fill="#000000"/>
<rect x="213" y="53" width="12" height="12" fill="#000000"/>
<rect x="223" y="53" width="12" height="12" fill="#000000"/>
<rect x="233" y="53" width="12" height="12" fill="#000000"/>
<rect x="243" y="63" width="12" height="12" fill="#000000"/>
<rect x="243" y="73" width="12" height="12" fill="#000000"/>
<rect x="203" y="83" width="12" height="12" fill="#000000"/>
<rect x="213" y="83" width="12" height="12" fill="#000000"/>
<rect x="223" y="83" width="12" height="12" fill="#000000"/>
<rect x="233" y="83" width="12" height="12" fill="#000000"/>
<rect x="263" y="23" width="12" height="12" fill="#000000"/>
<rect x="273" y="23" width="12" height="12" fill="#000000"/>
<rect x="283" y="23" width="12" height="12" fill="#000000"/>
<rect x="293" y="23" width="12" height="12" fill="#000000"/>
<rect x="303" y="23" width="12" height="12" fill="#000000"/>
<rect x="283" y="33" width="12" height="12" fill="#000000"/>
<rect x="283" y="43" width="12" height="12" fill="#000000"/>
<rect x="283" y="53" width="12" height="12" fill="#000000"/>
<rect x="283" y="63" width="12" height="12" fill="#000000"/>
<rect x="283" y="73" width="12" height="12" fill="#000000"/>
<rect x="283" y="83" width="12" height="12" fill="#000000"/>
<rect x="333" y="53" width="12" height="12" fill="#000000"/>
<rect x="343" y="53" width="12" height="12" fill="#000000"/>
<rect x="353" y="53" width="12" height="12" fill="#000000"/>
<rect x="383" y="23" width="12" height="12" fill="#000000"/>
<rect x="393" y="23" width="12" height="12" fill="#000000"/>
<rect x="403" y="23" width="12" height="12" fill="#000000"/>
<rect x="413" y="23" width="12" height="12" fill="#000000"/>
<rect x="383" y="33" width="12" height="12" fill="#000000"/>
<rect x="423" y="33" width="12" height="12" fill="#000000"/>
<rect x="383" y="43" width="12" height="12" fill="#000000"/>
<rect x="423" y="43" width="12" height="12" fill="#000000"/>
<rect x="383" y="53" width="12" height="12" fill="#000000"/>
<rect x="393" y="53" width="12" height="12" fill="#000000"/>
<rect x="403" y="53" width="12" height="12" fill="#000000"/>
<rect x="413" y="53" width="12" height="12" fill="#000000"/>
<rect x="383" y="63" width="12" height="12" fill="#000000"/>
<rect x="383" y="73" width="12" height="12" fill="#000000"/>
<rect x="383" y="83" width="12" height="12" fill="#000000"/>
<rect x="443" y="23" width="12" height="12" fill="#000000"/>
<rect x="443" y="33" width="12" height="12" fill="#000000"/>
<rect x="443" y="43" width="12" height="12" fill="#000000"/>
<rect x="443" y="53" width="12" height="12" fill="#000000"/>
<rect x="443" y="63" width="12" height="12" fill="#000000"/>
<rect x="443" y="73" width="12" height="12" fill="#000000"/>
<rect x="443" y="83" width="12" height="12" fill="#000000"/>
<rect x="453" y="83" width="12" height="12" fill="#000000"/>
<rect x="463" y="83" width="12" height="12" fill="#000000"/>
<rect x="473" y="83" width="12" height="12" fill="#000000"/>
<rect x="483" y="83" width="12" height="12" fill="#000000"/>
<rect x="513" y="23" width="12" height="12" fill="#000000"/>
<rect x="523" y="23" width="12" height="12" fill="#000000"/>
<rect x="533" y="23" width="12" height="12" fill="#000000"/>
<rect x="503" y="33" width="12" height="12" fill="#000000"/>
<rect x="543" y="33" width="12" height="12" fill="#000000"/>
<rect x="503" y="43" width="12" height="12" fill="#000000"/>
<rect x="543" y="43" width="12" height="12" fill="#000000"/>
<rect x="503" y="53" width="12" height="12" fill="#000000"/>
<rect x="513" y="53" width="12" height="12" fill="#000000"/>
<rect x="523" y="53" width="12" height="12" fill="#000000"/>
<rect x="533" y="53" width="12" height="12" fill="#000000"/>
<rect x="543" y="53" width="12" height="12" fill="#000000"/>
<rect x="503" y="63" width="12" height="12" fill="#000000"/>
<rect x="543" y="63" width="12" height="12" fill="#000000"/>
<rect x="503" y="73" width="12" height="12" fill="#000000"/>
<rect x="543" y="73" width="12" height="12" fill="#000000"/>
<rect x="503" y="83" width="12" height="12" fill="#000000"/>
<rect x="543" y="83" width="12" height="12" fill="#000000"/>
<rect x="563" y="23" width="12" height="12" fill="#000000"/>
<rect x="603" y="23" width="12" height="12" fill="#000000"/>
<rect x="563" y="33" width="12" height="12" fill="#000000"/>
<rect x="573" y="33" width="12" height="12" fill="#000000"/>
<rect x="603" y="33" width="12" height="12" fill="#000000"/>
<rect x="563" y="43" width="12" height="12" fill="#000000"/>
<rect x="583" y="43" width="12" height="12" fill="#000000"/>
<rect x="603" y="43" width="12" height="12" fill="#000000"/>
<rect x="563" y="53" width="12" height="12" fill="#000000"/>
<rect x="583" y="53" width="12" height="12" fill="#000000"/>
<rect x="603" y="53" width="12" height="12" fill="#000000"/>
<rect x="563" y="63" width="12" height="12" fill="#000000"/>
<rect x="583" y="63" width="12" height="12" fill="#000000"/>
<rect x="603" y="63" width="12" height="12" fill="#000000"/>
<rect x="563" y="73" width="12" height="12" fill="#000000"/>
<rect x="593" y="73" width="12" height="12" fill="#000000"/>
<rect x="603" y="73" width="12" height="12" fill="#000000"/>
<rect x="563" y="83" width="12" height="12" fill="#000000"/>
<rect x="603" y="83" width="12" height="12" fill="#000000"/>
<rect x="24" y="24" width="10" height="10" fill="#FCD34D"/>
<rect x="34" y="24" width="10" height="10" fill="#FCD34D"/>
<rect x="44" y="24" width="10" height="10" fill="#FCD34D"/>
<rect x="54" y="24" width="10" height="10" fill="#FCD34D"/>
<rect x="64" y="24" width="10" height="10" fill="#FCD34D"/>
<rect x="24" y="34" width="10" height="10" fill="#FCD34D"/>
<rect x="24" y="44" width="10" height="10" fill="#FCD34D"/>
<rect x="24" y="54" width="10" height="10" fill="#FCD34D"/>
<rect x="34" y="54" width="10" height="10" fill="#FCD34D"/>
<rect x="44" y="54" width="10" height="10" fill="#FCD34D"/>
<rect x="54" y="54" width="10" height="10" fill="#FCD34D"/>
<rect x="24" y="64" width="10" height="10" fill="#FCD34D"/>
<rect x="24" y="74" width="10" height="10" fill="#FCD34D"/>
<rect x="24" y="84" width="10" height="10" fill="#FCD34D"/>
<rect x="84" y="24" width="10" height="10" fill="#FCD34D"/>
<rect x="94" y="24" width="10" height="10" fill="#FCD34D"/>
<rect x="104" y="24" width="10" height="10" fill="#FCD34D"/>
<rect x="114" y="24" width="10" height="10" fill="#FCD34D"/>
<rect x="124" y="24" width="10" height="10" fill="#FCD34D"/>
<rect x="104" y="34" width="10" height="10" fill="#FCD34D"/>
<rect x="104" y="44" width="10" height="10" fill="#FCD34D"/>
<rect x="104" y="54" width="10" height="10" fill="#FCD34D"/>
<rect x="104" y="64" width="10" height="10" fill="#FCD34D"/>
<rect x="104" y="74" width="10" height="10" fill="#FCD34D"/>
<rect x="84" y="84" width="10" height="10" fill="#FCD34D"/>
<rect x="94" y="84" width="10" height="10" fill="#FCD34D"/>
<rect x="104" y="84" width="10" height="10" fill="#FCD34D"/>
<rect x="114" y="84" width="10" height="10" fill="#FCD34D"/>
<rect x="124" y="84" width="10" height="10" fill="#FCD34D"/>
<rect x="144" y="24" width="10" height="10" fill="#FCD34D"/>
<rect x="154" y="24" width="10" height="10" fill="#FCD34D"/>
<rect x="164" y="24" width="10" height="10" fill="#FCD34D"/>
<rect x="174" y="24" width="10" height="10" fill="#FCD34D"/>
<rect x="144" y="34" width="10" height="10" fill="#FCD34D"/>
<rect x="184" y="34" width="10" height="10" fill="#FCD34D"/>
<rect x="144" y="44" width="10" height="10" fill="#FCD34D"/>
<rect x="184" y="44" width="10" height="10" fill="#FCD34D"/>
<rect x="144" y="54" width="10" height="10" fill="#FCD34D"/>
<rect x="154" y="54" width="10" height="10" fill="#FCD34D"/>
<rect x="164" y="54" width="10" height="10" fill="#FCD34D"/>
<rect x="174" y="54" width="10" height="10" fill="#FCD34D"/>
<rect x="144" y="64" width="10" height="10" fill="#FCD34D"/>
<rect x="164" y="64" width="10" height="10" fill="#FCD34D"/>
<rect x="144" y="74" width="10" height="10" fill="#FCD34D"/>
<rect x="174" y="74" width="10" height="10" fill="#FCD34D"/>
<rect x="144" y="84" width="10" height="10" fill="#FCD34D"/>
<rect x="184" y="84" width="10" height="10" fill="#FCD34D"/>
<rect x="214" y="24" width="10" height="10" fill="#FCD34D"/>
<rect x="224" y="24" width="10" height="10" fill="#FCD34D"/>
<rect x="234" y="24" width="10" height="10" fill="#FCD34D"/>
<rect x="244" y="24" width="10" height="10" fill="#FCD34D"/>
<rect x="204" y="34" width="10" height="10" fill="#FCD34D"/>
<rect x="204" y="44" width="10" height="10" fill="#FCD34D"/>
<rect x="214" y="54" width="10" height="10" fill="#FCD34D"/>
<rect x="224" y="54" width="10" height="10" fill="#FCD34D"/>
<rect x="234" y="54" width="10" height="10" fill="#FCD34D"/>
<rect x="244" y="64" width="10" height="10" fill="#FCD34D"/>
<rect x="244" y="74" width="10" height="10" fill="#FCD34D"/>
<rect x="204" y="84" width="10" height="10" fill="#FCD34D"/>
<rect x="214" y="84" width="10" height="10" fill="#FCD34D"/>
<rect x="224" y="84" width="10" height="10" fill="#FCD34D"/>
<rect x="234" y="84" width="10" height="10" fill="#FCD34D"/>
<rect x="264" y="24" width="10" height="10" fill="#FCD34D"/>
<rect x="274" y="24" width="10" height="10" fill="#FCD34D"/>
<rect x="284" y="24" width="10" height="10" fill="#FCD34D"/>
<rect x="294" y="24" width="10" height="10" fill="#FCD34D"/>
<rect x="304" y="24" width="10" height="10" fill="#FCD34D"/>
<rect x="284" y="34" width="10" height="10" fill="#FCD34D"/>
<rect x="284" y="44" width="10" height="10" fill="#FCD34D"/>
<rect x="284" y="54" width="10" height="10" fill="#FCD34D"/>
<rect x="284" y="64" width="10" height="10" fill="#FCD34D"/>
<rect x="284" y="74" width="10" height="10" fill="#FCD34D"/>
<rect x="284" y="84" width="10" height="10" fill="#FCD34D"/>
<rect x="334" y="54" width="10" height="10" fill="#FCD34D"/>
<rect x="344" y="54" width="10" height="10" fill="#FCD34D"/>
<rect x="354" y="54" width="10" height="10" fill="#FCD34D"/>
<rect x="384" y="24" width="10" height="10" fill="#FCD34D"/>
<rect x="394" y="24" width="10" height="10" fill="#FCD34D"/>
<rect x="404" y="24" width="10" height="10" fill="#FCD34D"/>
<rect x="414" y="24" width="10" height="10" fill="#FCD34D"/>
<rect x="384" y="34" width="10" height="10" fill="#FCD34D"/>
<rect x="424" y="34" width="10" height="10" fill="#FCD34D"/>
<rect x="384" y="44" width="10" height="10" fill="#FCD34D"/>
<rect x="424" y="44" width="10" height="10" fill="#FCD34D"/>
<rect x="384" y="54" width="10" height="10" fill="#FCD34D"/>
<rect x="394" y="54" width="10" height="10" fill="#FCD34D"/>
<rect x="404" y="54" width="10" height="10" fill="#FCD34D"/>
<rect x="414" y="54" width="10" height="10" fill="#FCD34D"/>
<rect x="384" y="64" width="10" height="10" fill="#FCD34D"/>
<rect x="384" y="74" width="10" height="10" fill="#FCD34D"/>
<rect x="384" y="84" width="10" height="10" fill="#FCD34D"/>
<rect x="444" y="24" width="10" height="10" fill="#FCD34D"/>
<rect x="444" y="34" width="10" height="10" fill="#FCD34D"/>
<rect x="444" y="44" width="10" height="10" fill="#FCD34D"/>
<rect x="444" y="54" width="10" height="10" fill="#FCD34D"/>
<rect x="444" y="64" width="10" height="10" fill="#FCD34D"/>
<rect x="444" y="74" width="10" height="10" fill="#FCD34D"/>
<rect x="444" y="84" width="10" height="10" fill="#FCD34D"/>
<rect x="454" y="84" width="10" height="10" fill="#FCD34D"/>
<rect x="464" y="84" width="10" height="10" fill="#FCD34D"/>
<rect x="474" y="84" width="10" height="10" fill="#FCD34D"/>
<rect x="484" y="84" width="10" height="10" fill="#FCD34D"/>
<rect x="514" y="24" width="10" height="10" fill="#FCD34D"/>
<rect x="524" y="24" width="10" height="10" fill="#FCD34D"/>
<rect x="534" y="24" width="10" height="10" fill="#FCD34D"/>
<rect x="504" y="34" width="10" height="10" fill="#FCD34D"/>
<rect x="544" y="34" width="10" height="10" fill="#FCD34D"/>
<rect x="504" y="44" width="10" height="10" fill="#FCD34D"/>
<rect x="544" y="44" width="10" height="10" fill="#FCD34D"/>
<rect x="504" y="54" width="10" height="10" fill="#FCD34D"/>
<rect x="514" y="54" width="10" height="10" fill="#FCD34D"/>
<rect x="524" y="54" width="10" height="10" fill="#FCD34D"/>
<rect x="534" y="54" width="10" height="10" fill="#FCD34D"/>
<rect x="544" y="54" width="10" height="10" fill="#FCD34D"/>
<rect x="504" y="64" width="10" height="10" fill="#FCD34D"/>
<rect x="544" y="64" width="10" height="10" fill="#FCD34D"/>
<rect x="504" y="74" width="10" height="10" fill="#FCD34D"/>
<rect x="544" y="74" width="10" height="10" fill="#FCD34D"/>
<rect x="504" y="84" width="10" height="10" fill="#FCD34D"/>
<rect x="544" y="84" width="10" height="10" fill="#FCD34D"/>
<rect x="564" y="24" width="10" height="10" fill="#FCD34D"/>
<rect x="604" y="24" width="10" height="10" fill="#FCD34D"/>
<rect x="564" y="34" width="10" height="10" fill="#FCD34D"/>
<rect x="574" y="34" width="10" height="10" fill="#FCD34D"/>
<rect x="604" y="34" width="10" height="10" fill="#FCD34D"/>
<rect x="564" y="44" width="10" height="10" fill="#FCD34D"/>
<rect x="584" y="44" width="10" height="10" fill="#FCD34D"/>
<rect x="604" y="44" width="10" height="10" fill="#FCD34D"/>
<rect x="564" y="54" width="10" height="10" fill="#FCD34D"/>
<rect x="584" y="54" width="10" height="10" fill="#FCD34D"/>
<rect x="604" y="54" width="10" height="10" fill="#FCD34D"/>
<rect x="564" y="64" width="10" height="10" fill="#FCD34D"/>
<rect x="584" y="64" width="10" height="10" fill="#FCD34D"/>
<rect x="604" y="64" width="10" height="10" fill="#FCD34D"/>
<rect x="564" y="74" width="10" height="10" fill="#FCD34D"/>
<rect x="594" y="74" width="10" height="10" fill="#FCD34D"/>
<rect x="604" y="74" width="10" height="10" fill="#FCD34D"/>
<rect x="564" y="84" width="10" height="10" fill="#FCD34D"/>
<rect x="604" y="84" width="10" height="10" fill="#FCD34D"/>
<rect x="24" y="24" width="10" height="3" fill="#FEF3C7"/>
<rect x="34" y="24" width="10" height="3" fill="#FEF3C7"/>
<rect x="44" y="24" width="10" height="3" fill="#FEF3C7"/>
<rect x="54" y="24" width="10" height="3" fill="#FEF3C7"/>
<rect x="64" y="24" width="10" height="3" fill="#FEF3C7"/>
<rect x="34" y="54" width="10" height="3" fill="#FEF3C7"/>
<rect x="44" y="54" width="10" height="3" fill="#FEF3C7"/>
<rect x="54" y="54" width="10" height="3" fill="#FEF3C7"/>
<rect x="84" y="24" width="10" height="3" fill="#FEF3C7"/>
<rect x="94" y="24" width="10" height="3" fill="#FEF3C7"/>
<rect x="104" y="24" width="10" height="3" fill="#FEF3C7"/>
<rect x="114" y="24" width="10" height="3" fill="#FEF3C7"/>
<rect x="124" y="24" width="10" height="3" fill="#FEF3C7"/>
<rect x="84" y="84" width="10" height="3" fill="#FEF3C7"/>
<rect x="94" y="84" width="10" height="3" fill="#FEF3C7"/>
<rect x="114" y="84" width="10" height="3" fill="#FEF3C7"/>
<rect x="124" y="84" width="10" height="3" fill="#FEF3C7"/>
<rect x="144" y="24" width="10" height="3" fill="#FEF3C7"/>
<rect x="154" y="24" width="10" height="3" fill="#FEF3C7"/>
<rect x="164" y="24" width="10" height="3" fill="#FEF3C7"/>
<rect x="174" y="24" width="10" height="3" fill="#FEF3C7"/>
<rect x="184" y="34" width="10" height="3" fill="#FEF3C7"/>
<rect x="154" y="54" width="10" height="3" fill="#FEF3C7"/>
<rect x="164" y="54" width="10" height="3" fill="#FEF3C7"/>
<rect x="174" y="54" width="10" height="3" fill="#FEF3C7"/>
<rect x="174" y="74" width="10" height="3" fill="#FEF3C7"/>
<rect x="184" y="84" width="10" height="3" fill="#FEF3C7"/>
<rect x="214" y="24" width="10" height="3" fill="#FEF3C7"/>
<rect x="224" y="24" width="10" height="3" fill="#FEF3C7"/>
<rect x="234" y="24" width="10" height="3" fill="#FEF3C7"/>
<rect x="244" y="24" width="10" height="3" fill="#FEF3C7"/>
<rect x="204" y="34" width="10" height="3" fill="#FEF3C7"/>
<rect x="214" y="54" width="10" height="3" fill="#FEF3C7"/>
<rect x="224" y="54" width="10" height="3" fill="#FEF3C7"/>
<rect x="234" y="54" width="10" height="3" fill="#FEF3C7"/>
<rect x="244" y="64" width="10" height="3" fill="#FEF3C7"/>
<rect x="204" y="84" width="10" height="3" fill="#FEF3C7"/>
<rect x="214" y="84" width="10" height="3" fill="#FEF3C7"/>
<rect x="224" y="84" width="10" height="3" fill="#FEF3C7"/>
<rect x="234" y="84" width="10" height="3" fill="#FEF3C7"/>
<rect x="264" y="24" width="10" height="3" fill="#FEF3C7"/>
<rect x="274" y="24" width="10" height="3" fill="#FEF3C7"/>
<rect x="284" y="24" width="10" height="3" fill="#FEF3C7"/>
<rect x="294" y="24" width="10" height="3" fill="#FEF3C7"/>
<rect x="304" y="24" width="10" height="3" fill="#FEF3C7"/>
<rect x="334" y="54" width="10" height="3" fill="#FEF3C7"/>
<rect x="344" y="54" width="10" height="3" fill="#FEF3C7"/>
<rect x="354" y="54" width="10" height="3" fill="#FEF3C7"/>
<rect x="384" y="24" width="10" height="3" fill="#FEF3C7"/>
<rect x="394" y="24" width="10" height="3" fill="#FEF3C7"/>
<rect x="404" y="24" width="10" height="3" fill="#FEF3C7"/>
<rect x="414" y="24" width="10" height="3" fill="#FEF3C7"/>
<rect x="424" y="34" width="10" height="3" fill="#FEF3C7"/>
<rect x="394" y="54" width="10" height="3" fill="#FEF3C7"/>
<rect x="404" y="54" width="10" height="3" fill="#FEF3C7"/>
<rect x="414" y="54" width="10" height="3" fill="#FEF3C7"/>
<rect x="444" y="24" width="10" height="3" fill="#FEF3C7"/>
<rect x="454" y="84" width="10" height="3" fill="#FEF3C7"/>
<rect x="464" y="84" width="10" height="3" fill="#FEF3C7"/>
<rect x="474" y="84" width="10" height="3" fill="#FEF3C7"/>
<rect x="484" y="84" width="10" height="3" fill="#FEF3C7"/>
<rect x="514" y="24" width="10" height="3" fill="#FEF3C7"/>
<rect x="524" y="24" width="10" height="3" fill="#FEF3C7"/>
<rect x="534" y="24" width="10" height="3" fill="#FEF3C7"/>
<rect x="504" y="34" width="10" height="3" fill="#FEF3C7"/>
<rect x="544" y="34" width="10" height="3" fill="#FEF3C7"/>
<rect x="514" y="54" width="10" height="3" fill="#FEF3C7"/>
<rect x="524" y="54" width="10" height="3" fill="#FEF3C7"/>
<rect x="534" y="54" width="10" height="3" fill="#FEF3C7"/>
<rect x="564" y="24" width="10" height="3" fill="#FEF3C7"/>
<rect x="604" y="24" width="10" height="3" fill="#FEF3C7"/>
<rect x="574" y="34" width="10" height="3" fill="#FEF3C7"/>
<rect x="584" y="44" width="10" height="3" fill="#FEF3C7"/>
<rect x="594" y="74" width="10" height="3" fill="#FEF3C7"/>
<rect x="0" y="0" width="638" height="118" fill="url(#vignette)"/>
</svg>
